<svg xmlns="http://www.w3.org/2000/svg" width="32" height="32" viewBox="0 0 32 32"><defs><filter id="s" x="-50%" y="-50%" width="200%" height="200%"><feDropShadow dx="0" dy="1" stdDeviation="0.9" flood-opacity="0.4"/></filter></defs><path filter="url(#s)" d="M11.5 5.2C11.5 4 12.4 3 13.6 3S15.7 4 15.7 5.2V13.1L16.6 13C17.8 12.9 18.8 13.6 19 14.7L19.1 15.1L19.6 15C20.8 14.8 21.9 15.5 22.2 16.6L22.3 17L22.7 17C24 16.9 25 17.9 25 19.2V22.4C25 26.4 21.9 29.5 18 29.5H16.4C14.1 29.5 12 28.4 10.7 26.5L6.4 20.3C5.8 19.4 6 18.1 6.9 17.5C7.8 16.9 9 17.1 9.7 17.9L11.5 20.2Z" fill="#fff" stroke="#000" stroke-width="1.3" stroke-linejoin="round"/><path d="M15.7 13.1V19M19.1 15.1V19.4M22.3 17V19.8" fill="none" stroke="#000" stroke-width="1.1" stroke-linecap="round"/></svg>
