<svg xmlns="http://www.w3.org/2000/svg" viewBox="0 0 64 64" aria-hidden="true" focusable="false"><g fill="currentColor"><path d="M7.541492537313431 46.08H0.4804776119402959L12.795223880597012 17.919999999999998H21.789611940298506L34.18841791044776 46.08H26.95928358208955L24.311402985074626 39.859582089552234H10.231402985074626ZM15.317014925373133 28.049194029850742 12.669134328358206 34.18555223880597H21.87367164179104L19.225791044776116 28.049194029850742L17.5025671641791 23.678089552238802H17.040238805970148Z"/><path d="M45.74089552238806 46.50029850746269Q39.310328358208956 46.50029850746269 35.56967164179105 42.570507462686564Q31.829014925373134 38.64071641791045 31.829014925373134 32.0Q31.829014925373134 25.35928358208955 36.032 21.42949253731343Q40.23498507462686 17.499701492537312 47.46411940298508 17.499701492537312Q54.104835820895524 17.499701492537312 57.99259701492538 20.420776119402984Q61.88035820895523 23.341850746268655 61.88035820895523 28.385432835820893V28.721671641791044H54.86137313432836V28.385432835820893Q54.86137313432836 25.90567164179104 53.075104477611944 24.72883582089552Q51.28883582089552 23.551999999999996 47.296 23.551999999999996Q42.462567164179106 23.551999999999996 40.48716417910448 25.443343283582088Q38.51176119402985 27.334686567164177 38.51176119402985 31.999999999999996Q38.51176119402985 36.665313432835816 40.42411940298507 38.556656716417905Q42.336477611940296 40.448 47.00179104477612 40.448Q51.87725373134329 40.448 53.68453731343284 39.502328358208956Q55.49182089552239 38.556656716417905 55.61791044776119 35.86674626865671H46.07713432835821V31.201432835820896H61.92238805970149V46.08H56.080238805970154V40.02770149253731H55.744Q54.062805970149256 46.50029850746269 45.74089552238806 46.50029850746269Z"/></g><rect x="8" y="52" width="48" height="3.5" rx="1.75" fill="currentColor"/></svg>