<svg xmlns="http://www.w3.org/2000/svg" viewBox="0 0 64 64" aria-hidden="true" focusable="false"><circle cx="32" cy="32" r="30.5" fill="none" stroke="currentColor" stroke-width="3"/><g fill="currentColor"><path d="M12.279402985074626 43.519999999999996H6.502208955223881L16.577910447761194 20.479999999999997H23.936955223880595L34.08143283582089 43.519999999999996H28.166686567164177L26.00023880597015 38.4305671641791H14.48023880597015ZM18.641194029850745 28.767522388059696 16.474746268656716 33.78817910447761H24.005731343283582L21.83928358208955 28.767522388059696L20.429373134328358 25.191164179104476H20.05110447761194Z"/><path d="M42.95164179104478 43.86388059701492Q37.69026865671642 43.86388059701492 34.62973134328358 40.64859701492537Q31.56919402985075 37.43331343283582 31.56919402985075 31.999999999999996Q31.56919402985075 26.566686567164176 35.008 23.35140298507462Q38.446805970149256 20.13611940298507 44.36155223880597 20.13611940298507Q49.79486567164179 20.13611940298507 52.97576119402985 22.5260895522388Q56.15665671641791 24.916059701492532 56.15665671641791 29.042626865671636V29.317731343283576H50.41385074626866V29.042626865671636Q50.41385074626866 27.013731343283578 48.952358208955225 26.050865671641787Q47.49086567164179 25.087999999999997 44.224000000000004 25.087999999999997Q40.26937313432836 25.087999999999997 38.653134328358206 26.63546268656716Q37.03689552238806 28.182925373134324 37.03689552238806 31.999999999999996Q37.03689552238806 35.81707462686567 38.601552238805965 37.364537313432834Q40.16620895522388 38.912 43.983283582089555 38.912Q47.97229850746268 38.912 49.450985074626864 38.13826865671642Q50.929671641791046 37.364537313432834 51.03283582089553 35.163701492537314H43.22674626865672V31.346626865671638H56.1910447761194V43.519999999999996H51.41110447761194V38.56811940298507H51.135999999999996Q49.7604776119403 43.86388059701492 42.95164179104478 43.86388059701492Z"/></g></svg>